<svg width="600" height="150" viewBox="0 0 600 150" fill="none" xmlns="http://www.w3.org/2000/svg">
<rect width="600" height="150" rx="30" fill="black"/>
<path d="M124.966 75.5551C124.966 96.3982 108.184 113.296 87.4822 113.296C66.7804 113.296 50 96.4033 50 75.5551C50 54.707 66.7816 37.8159 87.4822 37.8159C108.183 37.8159 124.966 54.712 124.966 75.5551ZM166.085 75.5551C166.085 95.1764 157.694 111.081 147.344 111.081C136.993 111.081 128.602 95.1713 128.602 75.5551C128.602 55.939 136.993 40.0292 147.344 40.0292C157.694 40.0292 166.085 55.939 166.085 75.5551ZM182.904 75.5551C182.904 93.1348 179.952 107.385 176.312 107.385C172.672 107.385 169.72 93.1297 169.72 75.5551C169.72 57.9806 172.672 43.7254 176.314 43.7254C179.955 43.7254 182.904 57.9767 182.904 75.5551ZM286.352 41.0882L286.456 41.0653V40.2571H265.14L245.347 86.7773L225.554 40.2571H202.582V41.0653L202.686 41.0882C206.576 41.9664 208.552 43.2761 208.552 47.9994V103.295C208.552 108.019 206.569 109.328 202.678 110.207L202.575 110.23V111.04H218.16V110.232L218.057 110.209C214.166 109.331 212.191 108.021 212.191 103.298V51.2068L237.617 111.04H239.059L265.226 49.5382V104.664C264.893 108.394 262.935 109.546 259.412 110.342L259.308 110.366V111.168H286.456V110.366L286.352 110.342C282.825 109.546 280.82 108.394 280.487 104.664L280.469 47.9994H280.487C280.487 43.2761 282.462 41.9664 286.352 41.0882ZM298.753 77.7189C299.197 67.7835 302.764 60.6127 308.752 60.4892C310.598 60.5198 312.147 61.1256 313.352 62.2915C315.91 64.7747 317.113 69.9638 316.927 77.7189H298.753ZM298.484 80.519H330.304V80.3853C330.213 72.7881 328.013 66.8786 323.769 62.8209C320.101 59.3144 314.67 57.3849 308.965 57.3849H308.838C305.878 57.3849 302.246 58.1027 299.663 59.4035C296.721 60.7654 294.127 62.8019 291.969 65.4747C288.494 69.7805 286.389 75.5997 285.877 82.1392C285.861 82.3353 285.847 82.5313 285.833 82.7273C285.819 82.9233 285.81 83.0989 285.801 83.286C285.756 84.2055 285.74 85.1262 285.755 86.0467C286.1 100.858 294.101 112.695 308.311 112.695C320.785 112.695 328.048 103.577 329.859 91.3376L328.944 91.0156C325.762 97.5934 320.048 101.58 313.544 101.094C304.665 100.429 297.863 91.4267 298.48 80.5215M366.28 100.591C365.236 103.066 363.059 104.428 360.14 104.428C357.222 104.428 354.554 102.425 352.659 98.7847C350.622 94.8773 349.551 89.3534 349.551 82.81C349.551 69.1912 353.787 60.3823 360.343 60.3823C363.088 60.3823 365.249 61.7442 366.28 64.1205V100.591ZM387.388 110.3C383.497 109.379 381.522 108.009 381.522 103.045V37L357.882 43.9647V44.8174L358.027 44.806C361.288 44.5425 363.5 44.9931 364.785 46.1793C365.79 47.1084 366.28 48.534 366.28 50.5399V59.5944C363.95 58.1066 361.178 57.3823 357.814 57.3823C350.991 57.3823 344.756 60.255 340.259 65.4722C335.572 70.9095 333.094 78.34 333.094 86.958C333.092 102.35 340.669 112.695 351.946 112.695C358.543 112.695 363.85 109.08 366.28 102.984V111.168H387.491V110.32L387.388 110.3ZM407.662 45.982C407.662 41.176 404.039 37.5511 399.231 37.5511C394.447 37.5511 390.704 41.2549 390.704 45.982C390.704 50.7091 394.451 54.4129 399.231 54.4129C404.039 54.4129 407.662 50.7881 407.662 45.982ZM413.242 110.3C409.351 109.379 407.376 108.009 407.376 103.045H407.359V57.5389L386.147 63.6292V64.4565L386.274 64.4679C390.864 64.8765 392.12 66.4573 392.12 71.8208V111.168H413.35V110.32L413.242 110.3ZM467.596 110.3C463.705 109.379 461.73 108.009 461.73 103.045V57.5389L441.533 63.4281V64.2579L441.653 64.2706C445.405 64.6652 446.49 66.3364 446.49 71.7241V100.489C445.239 102.965 442.892 104.435 440.048 104.534C435.437 104.534 432.898 101.419 432.898 95.7644V57.5402L411.685 63.6304V64.4565L411.813 64.4679C416.402 64.8752 417.66 66.456 417.66 71.8208V96.1653C417.649 97.8648 417.797 99.5616 418.102 101.234L418.483 102.895C420.279 109.33 424.985 112.695 432.357 112.695C438.601 112.695 444.074 108.83 446.485 102.781V111.182H467.697V110.334L467.596 110.3ZM550 111.168V110.319L549.897 110.294C545.675 109.321 544.031 107.485 544.031 103.749V72.7945C544.031 63.143 538.61 57.3823 529.53 57.3823C522.911 57.3823 517.33 61.2071 515.182 67.165C513.475 60.852 508.563 57.3823 501.301 57.3823C494.922 57.3823 489.922 60.7489 487.777 66.4356V57.5427L466.565 63.3835V64.2159L466.693 64.2274C471.227 64.6296 472.538 66.2562 472.538 71.4822V111.168H492.33V110.32L492.226 110.294C488.858 109.503 487.771 108.059 487.771 104.356V68.8756C488.662 66.7946 490.458 64.3292 494.008 64.3292C498.417 64.3292 500.652 67.3839 500.652 73.4016V111.168H520.449V110.32L520.344 110.294C516.976 109.503 515.889 108.059 515.889 104.356V72.7907C515.898 71.6104 515.804 70.4316 515.609 69.2676C516.554 67.0059 518.453 64.3292 522.148 64.3292C526.619 64.3292 528.792 67.296 528.792 73.4016V111.168H550Z" fill="white"/>
</svg>
