<svg width="250" height="250" viewBox="0 0 250 250" fill="none" xmlns="http://www.w3.org/2000/svg">
<circle cx="125" cy="125" r="125" fill="white"/>
<path d="M205.49 176.483L137.563 32.2295C136.719 30.4545 135.411 28.9408 133.777 27.8484C132.143 26.7561 130.244 26.1257 128.281 26.0241C126.315 25.8923 124.349 26.3023 122.6 27.2093C120.85 28.1164 119.382 29.4859 118.356 31.1689L44.6824 150.496C43.5622 152.298 42.9788 154.382 43.0006 156.503C43.0224 158.625 43.6486 160.696 44.8057 162.474L80.8252 218.254C82.1879 220.348 84.191 221.946 86.5358 222.808C88.8805 223.67 91.4412 223.751 93.8359 223.039L198.366 192.12C199.939 191.66 201.396 190.867 202.637 189.795C203.879 188.724 204.875 187.398 205.56 185.908C206.235 184.426 206.579 182.814 206.568 181.186C206.557 179.557 206.191 177.95 205.495 176.477L205.49 176.483ZM190.282 182.669L101.583 208.898C98.8771 209.703 96.2798 207.357 96.8427 204.626L128.533 52.8889C129.125 50.0501 133.046 49.6003 134.285 52.2276L192.949 176.803C193.208 177.358 193.344 177.963 193.347 178.576C193.35 179.188 193.22 179.794 192.966 180.352C192.712 180.91 192.34 181.405 191.876 181.805C191.412 182.205 190.867 182.5 190.278 182.669L190.282 182.669Z" fill="black"/>
</svg>
